{
    "asset" : {
        "generator" : "Khronos glTF Blender I/O v1.0.5",
        "version" : "2.0"
    },
    "scene" : 0,
    "scenes" : [
        {
            "name" : "Scene",
            "nodes" : [
                0
            ]
        }
    ],
    "nodes" : [
        {
            "mesh" : 0,
            "name" : "Cylinder",
            "scale" : [
                3.0832507610321045,
                0.37193435430526733,
                3.0832507610321045
            ],
            "translation" : [
                0,
                1.631223201751709,
                0
            ]
        }
    ],
    "materials" : [
        {
            "doubleSided" : true,
            "name" : "Material.001",
            "pbrMetallicRoughness" : {
                "baseColorFactor" : [
                    0.7964993715286255,
                    0.4168820381164551,
                    0.17046526074409485,
                    1
                ],
                "metallicFactor" : 0,
                "roughnessFactor" : 0.5
            }
        },
        {
            "doubleSided" : true,
            "name" : "Material.002",
            "pbrMetallicRoughness" : {
                "baseColorFactor" : [
                    0.8000000715255737,
                    0.07508595287799835,
                    0.021332794800400734,
                    1
                ],
                "metallicFactor" : 0,
                "roughnessFactor" : 0.5
            }
        }
    ],
    "meshes" : [
        {
            "name" : "Cylinder",
            "primitives" : [
                {
                    "attributes" : {
                        "POSITION" : 0,
                        "NORMAL" : 1,
                        "TEXCOORD_0" : 2
                    },
                    "indices" : 3,
                    "material" : 0
                },
                {
                    "attributes" : {
                        "POSITION" : 4,
                        "NORMAL" : 5,
                        "TEXCOORD_0" : 6
                    },
                    "indices" : 7,
                    "material" : 1
                }
            ]
        }
    ],
    "accessors" : [
        {
            "bufferView" : 0,
            "componentType" : 5126,
            "count" : 4512,
            "max" : [
                1.0432684421539307,
                0.4937801957130432,
                0.9999338388442993
            ],
            "min" : [
                -1.0501666069030762,
                -1,
                -1.0524667501449585
            ],
            "type" : "VEC3"
        },
        {
            "bufferView" : 1,
            "componentType" : 5126,
            "count" : 4512,
            "type" : "VEC3"
        },
        {
            "bufferView" : 2,
            "componentType" : 5126,
            "count" : 4512,
            "type" : "VEC2"
        },
        {
            "bufferView" : 3,
            "componentType" : 5123,
            "count" : 6810,
            "type" : "SCALAR"
        },
        {
            "bufferView" : 4,
            "componentType" : 5126,
            "count" : 2080,
            "max" : [
                0.8813111782073975,
                0.25245290994644165,
                0.8334982991218567
            ],
            "min" : [
                -0.8905110955238342,
                -0.2009485960006714,
                -0.8902867436408997
            ],
            "type" : "VEC3"
        },
        {
            "bufferView" : 5,
            "componentType" : 5126,
            "count" : 2080,
            "type" : "VEC3"
        },
        {
            "bufferView" : 6,
            "componentType" : 5126,
            "count" : 2080,
            "type" : "VEC2"
        },
        {
            "bufferView" : 7,
            "componentType" : 5123,
            "count" : 3162,
            "type" : "SCALAR"
        }
    ],
    "bufferViews" : [
        {
            "buffer" : 0,
            "byteLength" : 54144,
            "byteOffset" : 0
        },
        {
            "buffer" : 0,
            "byteLength" : 54144,
            "byteOffset" : 54144
        },
        {
            "buffer" : 0,
            "byteLength" : 36096,
            "byteOffset" : 108288
        },
        {
            "buffer" : 0,
            "byteLength" : 13620,
            "byteOffset" : 144384
        },
        {
            "buffer" : 0,
            "byteLength" : 24960,
            "byteOffset" : 158004
        },
        {
            "buffer" : 0,
            "byteLength" : 24960,
            "byteOffset" : 182964
        },
        {
            "buffer" : 0,
            "byteLength" : 16640,
            "byteOffset" : 207924
        },
        {
            "buffer" : 0,
            "byteLength" : 6324,
            "byteOffset" : 224564
        }
    ],
    "buffers" : [
        {
            "byteLength" : 230888,
            "uri" : "data:application/octet-stream;base64,"
        }
    ]
}
